<svg width="93" height="93" viewBox="0 0 93 93" fill="none" xmlns="http://www.w3.org/2000/svg">
<g filter="url(#filter0_d_53_3)">
<circle cx="46.5" cy="42.5" r="42" stroke="white"/>
<path d="M45.1442 19.042C44.4724 18.3701 43.5791 18 42.6289 18C41.9039 18 41.2119 18.2155 40.6262 18.6161C40.0405 18.2154 39.3485 18 38.6235 18C37.6734 18 36.78 18.3701 36.1082 19.0419C35.4362 19.7138 35.0662 20.607 35.0662 21.5574C35.0662 22.5075 35.4362 23.4009 36.1082 24.0729L40.1136 28.078C40.2551 28.2195 40.4408 28.2903 40.6263 28.2903C40.8118 28.2903 40.9975 28.2195 41.1391 28.0779L45.1442 24.0727C46.5308 22.6855 46.5307 20.4288 45.1442 19.042ZM44.1185 23.0473L40.6264 26.5396L37.1338 23.0473C36.7359 22.6494 36.5167 22.1202 36.5167 21.5574C36.5167 20.9947 36.7357 20.4655 37.1337 20.0676C37.5316 19.6696 38.0607 19.4504 38.6235 19.4504C39.1863 19.4504 39.7154 19.6696 40.1136 20.0677C40.2495 20.2036 40.434 20.28 40.6264 20.28C40.8188 20.28 41.0032 20.2036 41.1391 20.0676C41.537 19.6696 42.0661 19.4504 42.6289 19.4504C43.1917 19.4504 43.7206 19.6696 44.1185 20.0676C44.9398 20.889 44.9397 22.2258 44.1185 23.0473Z" fill="white"/>
<path d="M51.8439 26.9149C51.4395 26.5102 50.9018 26.2875 50.3296 26.2875C49.9748 26.2875 49.6332 26.3733 49.3285 26.5349C49.0236 26.3733 48.6819 26.2875 48.327 26.2875C47.755 26.2875 47.2171 26.5103 46.813 26.9147C46.4085 27.319 46.1858 27.8568 46.1858 28.4287C46.1858 29.0007 46.4084 29.5384 46.813 29.9429L48.8159 31.9456C48.9519 32.0815 49.1364 32.1579 49.3288 32.1579C49.521 32.1579 49.7055 32.0815 49.8415 31.9455L51.8439 29.9428C52.6785 29.1079 52.6785 27.7494 51.8439 26.9149ZM50.818 28.9175L49.3286 30.4072L47.8385 28.9174C47.708 28.7869 47.6362 28.6134 47.6362 28.4288C47.6362 28.2442 47.708 28.0707 47.8386 27.9401C47.969 27.8097 48.1424 27.7378 48.3269 27.7378C48.5116 27.7378 48.6853 27.8098 48.8159 27.9404C48.9519 28.0763 49.1363 28.1527 49.3286 28.1527H49.3289C49.5212 28.1526 49.7056 28.0761 49.8416 27.9401C49.9719 27.8097 50.1451 27.7379 50.3295 27.7379C50.514 27.7379 50.6875 27.8098 50.818 27.9404C51.0874 28.2097 51.0872 28.648 50.818 28.9175Z" fill="white"/>
<path d="M63.5943 29.6803C63.4145 29.6803 59.1658 29.706 56.9285 31.9434L52.4325 36.4394L30.9513 31.0698C30.9461 31.0685 30.9408 31.0679 30.9356 31.0667C30.9218 31.0636 30.908 31.0608 30.8942 31.0585C30.8837 31.0567 30.8732 31.0552 30.8628 31.054C30.8503 31.0525 30.8378 31.0514 30.8253 31.0506C30.8136 31.0497 30.802 31.0491 30.7904 31.0489C30.7787 31.0487 30.7669 31.0488 30.7552 31.0491C30.7435 31.0495 30.7318 31.05 30.7201 31.0508C30.708 31.0518 30.6959 31.0532 30.6838 31.0547C30.6731 31.0561 30.6624 31.0574 30.652 31.0593C30.6384 31.0616 30.625 31.0645 30.6115 31.0676C30.6029 31.0697 30.5944 31.0716 30.5858 31.0739C30.5706 31.0779 30.5557 31.0828 30.5408 31.0879C30.5343 31.0901 30.5276 31.0923 30.521 31.0948C30.5052 31.1008 30.4896 31.1074 30.4741 31.1145C30.4685 31.117 30.463 31.1195 30.4576 31.1222C30.4423 31.1296 30.4274 31.1377 30.4127 31.1463C30.4069 31.1496 30.4009 31.153 30.3953 31.1565C30.382 31.1647 30.369 31.1735 30.3561 31.1826C30.3488 31.1877 30.3417 31.193 30.3346 31.1983C30.3239 31.2066 30.3134 31.2151 30.3032 31.2239C30.2943 31.2316 30.2856 31.2395 30.2771 31.2475C30.2724 31.2519 30.2674 31.2559 30.2628 31.2605L28.2119 33.3111C28.2084 33.3146 28.2055 33.3185 28.2021 33.3219C28.1928 33.3316 28.1839 33.3414 28.1751 33.3516C28.167 33.3611 28.1591 33.3707 28.1515 33.3805C28.1482 33.3847 28.1446 33.3886 28.1414 33.3929C28.1379 33.3976 28.135 33.4026 28.1316 33.4075C28.1237 33.4189 28.116 33.4304 28.1087 33.4422C28.1031 33.4511 28.0978 33.4601 28.0927 33.4692C28.0862 33.4809 28.0799 33.4927 28.0741 33.5047C28.0692 33.5147 28.0645 33.5246 28.0601 33.5347C28.0552 33.546 28.0506 33.5574 28.0463 33.5689C28.0422 33.5799 28.0382 33.5912 28.0346 33.6024C28.0311 33.6132 28.0279 33.624 28.025 33.6349C28.0218 33.647 28.0188 33.6591 28.0161 33.6712C28.0139 33.6817 28.0119 33.6922 28.0101 33.7027C28.0081 33.7152 28.0062 33.7277 28.0048 33.7402C28.0036 33.7509 28.0026 33.7617 28.0019 33.7724C28.001 33.7847 28.0004 33.7969 28.0001 33.8091C27.9999 33.8204 28 33.8316 28.0003 33.843C28.0007 33.8546 28.0011 33.8661 28.002 33.8777C28.0028 33.8897 28.0041 33.9017 28.0055 33.9136C28.0069 33.9244 28.0083 33.9351 28.0102 33.9456C28.0123 33.9582 28.0148 33.9707 28.0177 33.9831C28.0199 33.9932 28.0223 34.0031 28.025 34.0131C28.0284 34.0257 28.0323 34.0382 28.0364 34.0506C28.0396 34.0604 28.0428 34.0701 28.0466 34.0798C28.0511 34.0917 28.056 34.1036 28.0611 34.1153C28.0654 34.1254 28.0701 34.1353 28.0749 34.1452C28.0803 34.1559 28.086 34.1666 28.0919 34.1772C28.0977 34.1878 28.1039 34.1982 28.1103 34.2084C28.1162 34.2179 28.1223 34.2271 28.1286 34.2364C28.1362 34.2472 28.1441 34.2579 28.1523 34.2685C28.1586 34.2768 28.1653 34.2849 28.1721 34.293C28.1811 34.3035 28.1903 34.3138 28.2 34.3238C28.204 34.3281 28.2076 34.3327 28.2117 34.3368C28.2154 34.3405 28.2197 34.3437 28.2234 34.3474C28.2325 34.356 28.2418 34.3644 28.2513 34.3727C28.2614 34.3813 28.2716 34.3897 28.2819 34.3977C28.2858 34.4007 28.2894 34.4042 28.2934 34.4072L43.3419 45.5297L36.0494 52.8222L32.3726 51.5963C32.3654 51.5938 32.3582 51.5924 32.3509 51.5903C32.3374 51.5862 32.3239 51.5821 32.3101 51.5789C32.2983 51.5761 32.2864 51.5741 32.2745 51.5718C32.2636 51.5697 32.2528 51.5677 32.2418 51.5662C32.228 51.5643 32.2144 51.5631 32.2007 51.562C32.1912 51.5612 32.1819 51.5604 32.1724 51.56C32.158 51.5594 32.1437 51.5595 32.1292 51.5598C32.1201 51.56 32.1112 51.5601 32.1021 51.5606C32.0879 51.5614 32.0737 51.5628 32.0596 51.5645C32.0502 51.5656 32.0409 51.5667 32.0316 51.5681C32.0179 51.5702 32.0043 51.5729 31.9907 51.5759C31.9811 51.578 31.9717 51.58 31.9624 51.5823C31.9486 51.5859 31.9352 51.5901 31.9218 51.5944C31.9128 51.5973 31.9039 51.6 31.8949 51.6033C31.8806 51.6086 31.8664 51.6146 31.8525 51.6207C31.8449 51.624 31.8375 51.6271 31.83 51.6307C31.814 51.6384 31.7987 51.6468 31.7832 51.6556C31.779 51.6581 31.7745 51.6599 31.7703 51.6626L31.7608 51.6682C31.7596 51.6689 31.7584 51.6696 31.7572 51.6703L28.3581 53.7098C28.3563 53.7108 28.3547 53.7118 28.353 53.7129L28.3518 53.7136C28.3499 53.7147 28.3484 53.7161 28.3465 53.7172C28.328 53.7285 28.3098 53.7405 28.2923 53.7536C28.2867 53.7577 28.2815 53.7624 28.2761 53.7667C28.263 53.777 28.2499 53.7873 28.2376 53.7986C28.2291 53.8062 28.2215 53.8143 28.2135 53.8222C28.2048 53.8308 28.196 53.8392 28.1878 53.8482C28.177 53.8602 28.1672 53.8726 28.1573 53.8851C28.1526 53.8911 28.1475 53.8967 28.143 53.9029C28.1299 53.9203 28.118 53.9384 28.1067 53.9569C28.1056 53.9588 28.1043 53.9604 28.1031 53.9622C28.103 53.9624 28.1029 53.9626 28.1028 53.9628C28.078 54.0042 28.0575 54.0477 28.0414 54.0929C28.0345 54.1123 28.0289 54.1318 28.0238 54.1516C28.0231 54.1544 28.022 54.1571 28.0214 54.1599C28.0169 54.178 28.0135 54.1962 28.0104 54.2143C28.0096 54.2192 28.0083 54.224 28.0077 54.229C28.0053 54.2443 28.0042 54.2598 28.0029 54.2753C28.0023 54.2834 28.0011 54.2916 28.0008 54.2998C28.0002 54.3115 28.0005 54.3231 28.0006 54.3348C28.0005 54.347 28.0001 54.3591 28.0008 54.3713C28.0011 54.3791 28.0022 54.3868 28.0028 54.3945C28.0041 54.4104 28.0053 54.4261 28.0076 54.442C28.0083 54.4463 28.0094 54.4506 28.0101 54.4549C28.0132 54.4737 28.0167 54.4925 28.0214 54.5111C28.0216 54.512 28.0219 54.5128 28.0221 54.5137C28.0308 54.5473 28.0424 54.5805 28.056 54.6133C28.06 54.6231 28.0636 54.633 28.068 54.6426C28.0692 54.645 28.0707 54.6475 28.0718 54.6499C28.0813 54.6694 28.0913 54.6886 28.1024 54.7073C28.1027 54.7077 28.1028 54.7081 28.103 54.7085C28.1039 54.7099 28.1049 54.711 28.1058 54.7123C28.1198 54.7356 28.1356 54.7579 28.1524 54.7797C28.1574 54.786 28.1626 54.7923 28.1677 54.7985C28.1815 54.8151 28.196 54.831 28.2115 54.8465C28.2171 54.8522 28.2227 54.8582 28.2285 54.8638C28.2483 54.8824 28.2692 54.9002 28.2915 54.9167C28.2986 54.922 28.3062 54.9265 28.3135 54.9314C28.3262 54.9402 28.3384 54.9492 28.3518 54.9571L34.3925 58.5817L33.6816 59.2925C33.3984 59.5757 33.3984 60.0349 33.6816 60.318C33.8233 60.4596 34.0089 60.5305 34.1945 60.5305C34.38 60.5305 34.5656 60.4597 34.7073 60.318L35.4181 59.6072L39.0388 65.6415C39.0398 65.6432 39.0409 65.6449 39.0419 65.6466L39.0426 65.6478C39.043 65.6485 39.0436 65.6491 39.044 65.6498C39.0586 65.674 39.0749 65.6971 39.0925 65.7196C39.0971 65.7256 39.1019 65.7314 39.1067 65.7372C39.1208 65.7543 39.1359 65.7708 39.1519 65.7868C39.1572 65.7921 39.1623 65.7976 39.1677 65.8028C39.1878 65.8216 39.2088 65.8396 39.2314 65.8563C39.2379 65.8612 39.2449 65.8652 39.2516 65.8699C39.2647 65.879 39.2776 65.8883 39.2914 65.8966C39.2943 65.8984 39.2975 65.8996 39.3005 65.9012C39.3182 65.9116 39.3365 65.9203 39.3548 65.929C39.3662 65.9343 39.3772 65.9403 39.3887 65.945C39.4048 65.9516 39.4214 65.9566 39.4379 65.9621C39.4519 65.9667 39.4657 65.972 39.4799 65.9758C39.4942 65.9795 39.5088 65.9817 39.5231 65.9846C39.5394 65.9878 39.5556 65.9919 39.5721 65.994C39.5917 65.9965 39.6116 65.997 39.6316 65.9979C39.6424 65.9984 39.6532 66.0001 39.6638 66.0001C39.664 66.0001 39.6643 66 39.6645 66C39.6647 66 39.665 66.0001 39.6651 66.0001C39.6759 66.0001 39.6867 65.9984 39.6974 65.9979C39.7173 65.997 39.7372 65.9965 39.7568 65.994C39.7733 65.9919 39.7897 65.9879 39.8061 65.9845C39.8204 65.9817 39.8348 65.9795 39.849 65.9759C39.8633 65.9721 39.8773 65.9667 39.8915 65.9619C39.9078 65.9566 39.9241 65.9516 39.9401 65.945C39.9518 65.9402 39.9632 65.9341 39.9748 65.9286C39.9928 65.9201 40.0108 65.9115 40.0281 65.9013C40.0312 65.8996 40.0344 65.8983 40.0376 65.8966C40.052 65.8879 40.0654 65.8783 40.0789 65.8688C40.085 65.8646 40.0913 65.8609 40.0972 65.8564C40.12 65.8396 40.1411 65.8215 40.1614 65.8024C40.1666 65.7975 40.1716 65.7921 40.1767 65.787C40.1927 65.7708 40.208 65.7542 40.2224 65.7368C40.2271 65.7311 40.2319 65.7254 40.2364 65.7195C40.2538 65.6971 40.2702 65.674 40.2848 65.6498C40.2853 65.6491 40.2859 65.6484 40.2863 65.6476L40.2872 65.646C40.2881 65.6445 40.2892 65.6429 40.2901 65.6413L42.3373 62.2289C42.3418 62.2214 42.3454 62.2136 42.3495 62.206C42.3557 62.1948 42.362 62.1837 42.3675 62.1721C42.3729 62.1609 42.3778 62.1495 42.3826 62.1379C42.3868 62.1278 42.3913 62.1178 42.3951 62.1075C42.3997 62.0951 42.4037 62.0825 42.4075 62.0699C42.4106 62.06 42.4137 62.0503 42.4164 62.0402C42.4197 62.0276 42.4224 62.0148 42.4252 62.0021C42.4273 61.9917 42.4295 61.9812 42.4312 61.9706C42.433 61.9585 42.4344 61.9464 42.4357 61.9342C42.437 61.9227 42.4382 61.911 42.4389 61.8994C42.4396 61.8882 42.4398 61.8769 42.4399 61.8657C42.4401 61.8537 42.4402 61.8411 42.4397 61.8285C42.4392 61.8179 42.4383 61.8072 42.4374 61.7966C42.4364 61.7838 42.4353 61.771 42.4336 61.7581C42.432 61.747 42.4298 61.7359 42.4279 61.7249C42.4256 61.7129 42.4236 61.701 42.4207 61.689C42.4177 61.6765 42.414 61.6642 42.4102 61.6518C42.4079 61.6435 42.4061 61.6351 42.4033 61.6269L41.1772 57.95L62.053 37.0743C62.054 37.0732 62.0552 37.0722 62.0563 37.0712C64.2937 34.8338 64.3194 30.5853 64.3194 30.4055C64.3195 30.005 63.9948 29.6803 63.5943 29.6803ZM29.8327 33.7414L30.9978 32.5764L51.2365 37.6353L44.3791 44.4926L29.8327 33.7414ZM61.0331 36.043C61.0323 36.0439 61.0314 36.0445 61.0305 36.0454L39.8347 57.2413C39.8323 57.2438 39.8303 57.2464 39.8279 57.2488C39.818 57.2591 39.8087 57.2697 39.7993 57.2804C39.7924 57.2884 39.7854 57.2963 39.7789 57.3044C39.7717 57.3135 39.7651 57.323 39.7583 57.3325C39.7507 57.343 39.7432 57.3534 39.7363 57.3642C39.7315 57.3716 39.7273 57.3794 39.7228 57.3869C39.7151 57.4 39.7076 57.4129 39.7008 57.4262C39.6975 57.4328 39.6947 57.4396 39.6914 57.4464C39.6847 57.4608 39.678 57.4753 39.6722 57.49C39.6693 57.4975 39.6669 57.5052 39.6642 57.5128C39.6593 57.5268 39.6542 57.5409 39.6501 57.5551C39.6473 57.5653 39.6452 57.5756 39.6426 57.5858C39.6398 57.5977 39.6367 57.6096 39.6344 57.6217C39.6321 57.6346 39.6306 57.6478 39.6289 57.661C39.6276 57.6706 39.6261 57.6801 39.6251 57.6898C39.6239 57.7043 39.6235 57.7187 39.6231 57.7333C39.6229 57.7421 39.6223 57.7508 39.6223 57.7595C39.6224 57.7734 39.6234 57.7872 39.6243 57.801C39.6249 57.811 39.6253 57.8209 39.6264 57.8308C39.6277 57.8427 39.6296 57.8546 39.6315 57.8664C39.6334 57.8787 39.6352 57.8909 39.6379 57.903C39.6398 57.9127 39.6424 57.9223 39.6448 57.9318C39.6484 57.9462 39.6522 57.9604 39.6567 57.9746C39.6576 57.9776 39.6582 57.9807 39.6592 57.9838L40.9215 61.7695L39.6639 63.8656L36.4746 58.5505L39.4929 55.5322C39.7764 55.2488 39.7764 54.7896 39.4932 54.5064C39.2099 54.2232 38.7508 54.2232 38.4676 54.5064L35.4494 57.5246L30.1342 54.3353L32.2304 53.0776L36.0161 54.34C36.0185 54.3408 36.0209 54.3409 36.0233 54.3418C36.0556 54.3522 36.0884 54.3602 36.1215 54.3659C36.1296 54.3673 36.1376 54.3683 36.1457 54.3694C36.1756 54.3735 36.2056 54.3762 36.2357 54.3766C36.239 54.3767 36.2422 54.3775 36.2456 54.3775C36.2493 54.3775 36.2529 54.3766 36.2566 54.3766C36.2853 54.3762 36.3139 54.3737 36.3425 54.3699C36.3515 54.3687 36.3604 54.3675 36.3693 54.366C36.4001 54.3607 36.4307 54.3536 36.4608 54.3442C36.4669 54.3422 36.4728 54.34 36.4789 54.3378C36.5062 54.3285 36.533 54.3176 36.5594 54.3049C36.5643 54.3026 36.5694 54.3005 36.5743 54.298C36.6027 54.2835 36.6302 54.2669 36.6568 54.2485C36.6637 54.2437 36.6705 54.2384 36.6773 54.2334C36.6981 54.2179 36.7181 54.2013 36.7375 54.1833C36.7434 54.1778 36.7498 54.1727 36.7555 54.167C36.7564 54.1662 36.7573 54.1655 36.7581 54.1647L57.954 32.9688C59.265 31.6577 61.6157 31.2816 62.8268 31.1738C62.7205 32.383 62.3466 34.7271 61.0331 36.043Z" fill="white"/>
<path d="M62.9485 63.1729C62.9478 63.1611 62.9466 63.1493 62.9453 63.1375C62.944 63.1265 62.9424 63.1156 62.9405 63.1047C62.9383 63.0909 62.9356 63.0773 62.9325 63.0637C62.9313 63.0584 62.9307 63.0532 62.9294 63.0478L58.2806 44.4503C58.1835 44.0617 57.7895 43.8256 57.4012 43.9227C57.0126 44.0198 56.7764 44.4135 56.8735 44.8021L61.4226 63.0012L60.2577 64.1662L50.8788 51.4767C50.6408 51.1546 50.1867 51.0866 49.8646 51.3246C49.5425 51.5626 49.4745 52.0167 49.7125 52.3388L59.5921 65.7055C59.5945 65.7088 59.5975 65.7118 59.6001 65.7151C59.6114 65.7298 59.6234 65.7439 59.6359 65.7579C59.6426 65.7653 59.649 65.7728 59.6558 65.7799C59.6582 65.7823 59.6601 65.7849 59.6625 65.7872C59.6729 65.7976 59.6839 65.8068 59.6949 65.8165C59.7018 65.8227 59.7085 65.8294 59.7157 65.8353C59.736 65.8519 59.7569 65.8673 59.7783 65.8813C59.7843 65.8852 59.7905 65.8885 59.7965 65.8921C59.8131 65.9023 59.83 65.9122 59.8473 65.921C59.8552 65.9249 59.8632 65.9284 59.8712 65.9321C59.8873 65.9396 59.9036 65.9466 59.9201 65.9528C59.9285 65.956 59.937 65.9588 59.9455 65.9617C59.9622 65.9672 59.9791 65.9721 59.9959 65.9764C60.0045 65.9786 60.0129 65.9808 60.0215 65.9827C60.0394 65.9865 60.0575 65.9895 60.0756 65.9921C60.0833 65.9932 60.0909 65.9946 60.0986 65.9953C60.1236 65.9981 60.1488 65.9996 60.1739 65.9997C60.1746 65.9997 60.1753 65.9998 60.176 65.9998C60.1769 65.9998 60.1777 65.9996 60.1785 65.9996C60.2107 65.9995 60.2429 65.9965 60.2748 65.9921C60.2825 65.991 60.29 65.9901 60.2977 65.9888C60.3295 65.9834 60.3611 65.976 60.3921 65.9663C60.3981 65.9644 60.4041 65.9621 60.41 65.96C60.4404 65.9496 60.4703 65.9374 60.4994 65.923C60.5021 65.9216 60.5047 65.9205 60.5075 65.9192C60.5387 65.9032 60.5687 65.8842 60.5977 65.8633C60.6005 65.8612 60.6036 65.8599 60.6065 65.8578C60.6107 65.8547 60.6143 65.8513 60.6183 65.8482C60.6286 65.8403 60.6386 65.8319 60.6484 65.8234C60.6581 65.8152 60.6675 65.8067 60.6766 65.798C60.6804 65.7943 60.6845 65.7912 60.6883 65.7874L62.739 63.7367C62.743 63.7326 62.7466 63.7281 62.7506 63.724C62.7597 63.7144 62.7684 63.7047 62.7769 63.6947C62.7845 63.6854 62.792 63.6762 62.7993 63.6669C62.8059 63.6582 62.8123 63.6495 62.8185 63.6406C62.8264 63.6295 62.8338 63.6183 62.8411 63.6069C62.8459 63.5989 62.8506 63.5909 62.8552 63.5829C62.8624 63.5703 62.8693 63.5577 62.8756 63.5449C62.8795 63.5368 62.8833 63.5287 62.8869 63.5204C62.8926 63.5076 62.8983 63.4947 62.9032 63.4815C62.9068 63.4722 62.9099 63.4628 62.9131 63.4534C62.9172 63.4412 62.9211 63.429 62.9245 63.4167C62.9276 63.4055 62.9301 63.3942 62.9328 63.383C62.9352 63.372 62.9376 63.3612 62.9395 63.3501C62.9418 63.3373 62.9434 63.3247 62.945 63.3118C62.9463 63.3017 62.9474 63.2916 62.9482 63.2815C62.9493 63.2682 62.9498 63.2549 62.9501 63.2416C62.9504 63.2312 62.9506 63.2209 62.9504 63.2105C62.9501 63.198 62.9494 63.1855 62.9485 63.1729Z" fill="white"/>
</g>
<defs>
<filter id="filter0_d_53_3" x="0" y="0" width="93" height="93" filterUnits="userSpaceOnUse" color-interpolation-filters="sRGB">
<feFlood flood-opacity="0" result="BackgroundImageFix"/>
<feColorMatrix in="SourceAlpha" type="matrix" values="0 0 0 0 0 0 0 0 0 0 0 0 0 0 0 0 0 0 127 0" result="hardAlpha"/>
<feOffset dy="4"/>
<feGaussianBlur stdDeviation="2"/>
<feComposite in2="hardAlpha" operator="out"/>
<feColorMatrix type="matrix" values="0 0 0 0 0 0 0 0 0 0 0 0 0 0 0 0 0 0 0.25 0"/>
<feBlend mode="normal" in2="BackgroundImageFix" result="effect1_dropShadow_53_3"/>
<feBlend mode="normal" in="SourceGraphic" in2="effect1_dropShadow_53_3" result="shape"/>
</filter>
</defs>
</svg>
